<?xml version="1.0" standalone="no"?>
<!DOCTYPE svg PUBLIC "-//W3C//DTD SVG 20010904//EN"
 "http://www.w3.org/TR/2001/REC-SVG-20010904/DTD/svg10.dtd">
<svg version="1.0" xmlns="http://www.w3.org/2000/svg"
 width="1920.000000pt" height="1919.000000pt" viewBox="0 0 1920.000000 1919.000000"
 preserveAspectRatio="xMidYMid meet">

<g transform="translate(0.000000,1919.000000) scale(0.100000,-0.100000)"
fill="#000000" stroke="none">
<path d="M0 9595 l0 -9595 9600 0 9600 0 0 9595 0 9595 -9600 0 -9600 0 0
-9595z m19188 3 l-3 -9583 -9587 -3 -9588 -2 0 9585 0 9585 9590 0 9590 0 -2
-9582z"/>
<path d="M9520 14148 c-32 -22 -78 -94 -495 -778 -226 -372 -365 -600 -500
-820 -76 -124 -242 -396 -370 -605 -128 -209 -350 -573 -495 -810 -145 -236
-307 -502 -360 -590 -53 -88 -326 -533 -605 -990 -279 -456 -552 -902 -605
-990 -53 -88 -158 -259 -232 -380 -74 -121 -280 -458 -458 -750 -177 -291
-340 -557 -360 -590 -226 -362 -956 -1568 -965 -1594 -26 -72 21 -161 95 -181
46 -12 3876 -41 5420 -42 657 0 2147 8 3310 17 1988 15 2117 17 2150 34 19 10
46 33 58 52 20 28 23 43 19 84 -4 43 -25 84 -143 275 -75 124 -174 286 -219
360 -45 74 -149 245 -232 380 -82 135 -405 664 -717 1175 -313 512 -592 968
-621 1015 -29 47 -331 542 -672 1100 -1442 2362 -1804 2955 -1903 3115 -37 61
-175 286 -306 500 -130 215 -298 489 -372 610 -74 121 -157 257 -185 303 -37
63 -59 88 -88 102 -51 27 -108 26 -149 -2z m199 -596 c244 -400 346 -567 893
-1462 664 -1087 646 -1058 803 -1315 67 -110 233 -382 370 -605 259 -424 442
-723 580 -950 146 -241 370 -606 1002 -1640 341 -558 752 -1231 913 -1495 161
-264 326 -534 366 -599 41 -66 74 -123 74 -128 0 -4 -109 -8 -242 -9 -134 0
-1273 -8 -2533 -18 -2203 -17 -2384 -17 -4750 0 -1353 10 -2520 20 -2593 21
l-133 3 59 95 c33 52 216 352 407 665 492 806 579 949 745 1220 81 132 329
537 550 900 222 363 682 1117 1023 1675 1731 2833 2055 3364 2191 3588 82 133
151 242 155 242 3 0 57 -84 120 -188z"/>
</g>
</svg>
